<svg id="visual" viewBox="0 0 900 600" width="900" height="600" xmlns="http://www.w3.org/2000/svg" xmlns:xlink="http://www.w3.org/1999/xlink" version="1.1"><path d="M0 390L13.7 401.7C27.3 413.3 54.7 436.7 82 451.8C109.3 467 136.7 474 163.8 463.3C191 452.7 218 424.3 245.2 412.5C272.3 400.7 299.7 405.3 327 409.2C354.3 413 381.7 416 409 429.7C436.3 443.3 463.7 467.7 491 460.3C518.3 453 545.7 414 573 413C600.3 412 627.7 449 654.8 457.8C682 466.7 709 447.3 736.2 428.8C763.3 410.3 790.7 392.7 818 387.5C845.3 382.3 872.7 389.7 886.3 393.3L900 397L900 601L886.3 601C872.7 601 845.3 601 818 601C790.7 601 763.3 601 736.2 601C709 601 682 601 654.8 601C627.7 601 600.3 601 573 601C545.7 601 518.3 601 491 601C463.7 601 436.3 601 409 601C381.7 601 354.3 601 327 601C299.7 601 272.3 601 245.2 601C218 601 191 601 163.8 601C136.7 601 109.3 601 82 601C54.7 601 27.3 601 13.7 601L0 601Z" fill="#323946" stroke-linecap="round" stroke-linejoin="miter"></path></svg>