<?xml version="1.0" standalone="no"?>
<!DOCTYPE svg PUBLIC "-//W3C//DTD SVG 20010904//EN"
 "http://www.w3.org/TR/2001/REC-SVG-20010904/DTD/svg10.dtd">
<svg version="1.0" xmlns="http://www.w3.org/2000/svg"
 width="1268.000000pt" height="1268.000000pt" viewBox="0 0 1268.000000 1268.000000"
 preserveAspectRatio="xMidYMid meet">
<metadata>
Created by potrace 1.14, written by Peter Selinger 2001-2017
</metadata>
<g transform="translate(0.000000,1268.000000) scale(0.100000,-0.100000)"
fill="#000000" stroke="none">
<path d="M6029 12566 c-2 -2 -47 -7 -99 -11 -52 -3 -102 -8 -110 -10 -8 -2
-42 -6 -75 -9 -74 -7 -142 -15 -175 -21 -14 -2 -45 -7 -70 -10 -25 -3 -70 -10
-100 -16 -30 -5 -68 -11 -85 -14 -16 -3 -50 -10 -75 -15 -25 -5 -56 -12 -70
-14 -54 -9 -330 -76 -415 -100 -49 -15 -97 -28 -105 -30 -106 -26 -468 -158
-665 -241 -113 -47 -458 -216 -575 -281 -107 -59 -307 -182 -435 -267 -131
-87 -429 -308 -512 -380 l-52 -45 282 0 282 -1 35 28 c56 44 266 182 385 253
281 168 534 295 805 405 74 29 144 58 155 63 11 4 49 18 85 30 36 12 74 26 85
30 108 45 544 164 715 195 14 3 36 7 50 10 14 2 48 9 75 15 28 5 64 12 80 14
70 11 101 17 125 21 14 2 48 7 75 10 28 3 66 7 85 10 19 2 64 7 100 10 36 4
76 8 90 10 153 24 917 24 1039 0 9 -2 50 -6 92 -9 41 -3 84 -8 95 -10 12 -2
45 -7 75 -11 114 -13 334 -51 434 -75 22 -5 83 -19 135 -31 237 -54 483 -129
745 -227 93 -35 338 -138 375 -157 14 -8 93 -47 176 -88 167 -83 374 -200 490
-277 41 -27 78 -50 80 -50 3 0 57 -37 122 -82 64 -45 126 -83 137 -84 11 -1
32 -3 46 -3 23 -1 26 -5 23 -30 -3 -26 5 -36 79 -92 310 -240 610 -533 939
-919 12 -14 74 -95 139 -180 498 -661 851 -1414 1034 -2210 29 -125 59 -277
76 -380 5 -36 12 -76 14 -90 66 -416 79 -1035 31 -1480 -3 -25 -8 -72 -12
-105 -5 -55 -56 -367 -68 -425 -3 -14 -8 -38 -11 -55 -52 -268 -172 -673 -285
-955 -44 -112 -49 -123 -100 -240 -59 -136 -227 -465 -280 -550 -5 -8 -26 -44
-46 -79 -96 -168 -337 -510 -497 -706 -256 -313 -608 -658 -912 -895 -101 -79
-103 -82 -100 -112 3 -27 1 -28 -42 -28 -35 0 -54 -7 -82 -29 -81 -64 -475
-315 -541 -344 -8 -4 -31 -17 -50 -28 -129 -79 -474 -239 -705 -328 -184 -72
-540 -188 -629 -205 -6 -2 -30 -8 -52 -14 -23 -7 -62 -16 -85 -21 -24 -5 -98
-20 -164 -34 -116 -24 -178 -36 -220 -42 -11 -2 -33 -6 -50 -8 -16 -3 -66 -11
-110 -17 -44 -6 -93 -13 -110 -15 -16 -3 -64 -7 -105 -11 -41 -3 -86 -7 -100
-10 -142 -23 -893 -23 -1015 0 -11 2 -55 7 -98 11 -43 3 -88 8 -100 10 -12 2
-44 6 -72 10 -27 3 -66 9 -85 12 -19 3 -44 6 -55 8 -59 7 -405 75 -440 85 -16
5 -93 26 -170 46 -271 71 -577 178 -850 299 -153 67 -469 226 -473 237 -2 4
-8 8 -13 8 -17 0 -319 185 -464 284 l-139 96 -273 0 c-150 0 -273 -3 -272 -7
0 -5 47 -45 104 -91 493 -394 1034 -708 1620 -943 315 -126 782 -263 1075
-315 14 -2 45 -9 70 -14 48 -10 210 -36 275 -45 120 -15 312 -36 395 -43 124
-9 841 -9 950 1 47 4 108 9 135 12 28 2 68 7 90 9 22 3 63 8 90 11 95 12 401
60 435 70 8 2 29 7 45 10 145 25 649 161 720 194 11 5 52 19 90 31 39 13 84
28 100 35 17 8 73 30 125 50 447 174 945 448 1365 752 56 40 307 236 327 256
7 6 60 52 118 101 132 113 444 424 576 576 369 424 660 859 906 1355 83 166
203 441 228 520 7 22 16 45 20 50 7 9 99 284 144 430 17 54 102 384 109 425 3
14 8 36 11 50 3 14 8 39 11 55 3 17 14 80 25 140 11 61 22 126 24 145 3 19 10
69 16 110 15 112 18 137 25 225 4 44 8 91 10 104 23 141 23 822 0 1016 -2 22
-7 69 -10 105 -15 187 -68 526 -109 700 -8 36 -17 76 -19 90 -6 29 -69 271
-91 345 -134 461 -333 930 -561 1325 -43 74 -83 144 -89 155 -40 70 -220 341
-280 421 -17 23 -40 55 -51 70 -47 65 -199 257 -225 284 -8 8 -25 29 -38 45
-76 97 -420 452 -557 575 -313 281 -657 536 -980 726 -66 39 -136 81 -155 92
-64 38 -484 247 -570 284 -246 104 -613 236 -735 264 -5 1 -66 18 -135 37
-104 29 -286 72 -391 92 -40 8 -143 27 -164 30 -11 2 -52 9 -92 15 -80 13 -91
14 -178 25 -33 3 -71 8 -85 11 -13 2 -58 6 -100 10 -41 3 -91 8 -110 11 -39 6
-895 14 -901 9z"/>
<path d="M613 10178 c-9 -15 -15 -133 -8 -164 6 -27 20 -32 98 -39 101 -10
204 -49 360 -138 124 -71 211 -163 247 -264 l23 -63 -6 -487 c-3 -269 -8 -537
-11 -598 -3 -60 -8 -184 -11 -275 -3 -91 -8 -203 -10 -250 -3 -47 -7 -137 -10
-200 -2 -63 -7 -151 -10 -195 -3 -44 -7 -125 -10 -180 -5 -97 -8 -150 -20
-325 -7 -102 -12 -185 -20 -305 -3 -49 -8 -115 -10 -145 -2 -30 -7 -98 -10
-150 -4 -52 -8 -120 -10 -150 -2 -30 -7 -98 -10 -150 -3 -52 -8 -115 -10 -140
-2 -25 -7 -90 -10 -145 -4 -55 -8 -118 -10 -140 -2 -22 -7 -89 -10 -150 -4
-60 -8 -130 -10 -155 -2 -25 -6 -90 -10 -145 -3 -55 -7 -127 -10 -160 -6 -86
-13 -195 -20 -315 -4 -58 -8 -130 -10 -160 -3 -30 -7 -107 -10 -170 -3 -63 -8
-151 -10 -195 -3 -44 -7 -132 -10 -195 -5 -105 -7 -146 -20 -340 -10 -146 -17
-236 -20 -260 -12 -74 -17 -100 -31 -150 -82 -288 -276 -469 -580 -541 -104
-25 -126 -27 -264 -35 -63 -4 -121 -11 -128 -16 -16 -14 -17 -179 0 -196 9 -9
314 -12 1309 -12 l1298 0 7 23 c13 40 7 179 -8 188 -7 5 -47 9 -88 10 -41 0
-82 2 -90 3 -8 2 -45 6 -82 10 -78 7 -182 28 -288 57 -190 53 -341 160 -395
281 l-28 63 2 265 c2 146 4 297 6 335 2 67 14 344 20 470 6 131 16 333 20 385
2 30 7 107 10 170 3 63 8 153 11 200 2 47 7 123 9 170 3 47 7 119 10 160 3 41
7 116 10 165 3 50 8 126 10 170 5 80 9 149 20 325 12 207 16 268 20 335 2 39
7 111 10 160 5 85 9 147 20 325 5 71 7 113 20 345 3 55 7 132 10 170 3 39 7
117 10 175 3 58 8 130 10 160 2 30 7 116 10 190 4 74 8 160 11 190 2 30 6 145
10 255 5 186 15 265 33 265 20 0 55 -62 136 -240 48 -107 103 -229 123 -270
40 -88 68 -148 129 -285 25 -55 59 -129 75 -165 17 -36 73 -159 125 -275 52
-115 109 -239 125 -275 16 -36 61 -135 100 -220 38 -85 83 -184 100 -220 36
-77 288 -632 343 -755 32 -71 68 -149 105 -230 18 -38 52 -115 77 -170 25 -55
58 -129 75 -165 17 -36 73 -159 125 -275 88 -195 151 -333 225 -495 17 -36
109 -238 205 -450 96 -212 189 -416 207 -455 18 -38 133 -292 256 -563 l223
-492 36 -10 c48 -13 120 -13 161 1 26 9 37 24 60 73 26 56 48 106 135 291 18
39 58 126 90 195 31 69 77 167 101 219 24 51 44 95 44 96 0 2 29 65 65 140 36
76 65 139 65 140 0 2 21 47 46 102 26 54 72 154 104 223 32 69 73 159 93 200
19 41 72 156 117 255 45 99 105 227 131 284 27 57 49 104 49 106 0 1 24 54 54
116 29 63 90 193 134 289 97 214 125 274 192 415 29 61 59 128 68 150 8 22 18
45 22 50 4 6 42 84 83 175 41 91 94 206 117 255 24 50 83 178 132 285 50 107
103 222 118 255 15 33 69 150 120 260 51 110 108 234 127 275 33 71 75 160
128 275 13 28 33 73 45 100 13 28 45 97 72 155 27 58 65 139 84 180 19 41 68
147 108 235 103 223 120 222 131 -9 3 -61 7 -142 10 -181 2 -38 7 -124 10
-190 4 -66 8 -149 10 -185 3 -36 7 -114 10 -175 3 -60 7 -141 10 -180 3 -38 7
-119 10 -180 3 -60 8 -139 10 -175 2 -36 7 -114 10 -175 5 -103 9 -176 20
-355 3 -41 7 -124 10 -185 3 -60 7 -139 10 -175 2 -36 6 -117 10 -180 5 -112
10 -194 20 -362 3 -46 7 -128 10 -183 3 -55 7 -136 10 -180 3 -44 7 -120 10
-170 13 -228 16 -286 20 -375 5 -89 7 -139 20 -345 3 -44 7 -125 10 -180 3
-55 7 -134 10 -175 2 -41 7 -124 10 -185 3 -60 8 -146 10 -190 26 -395 26
-469 5 -537 -33 -103 -97 -172 -217 -233 -154 -78 -393 -122 -683 -125 -41 0
-82 -4 -90 -10 -21 -13 -21 -187 0 -200 24 -15 3153 -13 3168 2 8 8 12 45 12
100 0 73 -3 89 -17 97 -10 5 -78 12 -152 15 -74 4 -137 8 -140 10 -3 2 -28 7
-56 10 -362 49 -669 278 -709 531 -5 29 -12 145 -21 315 -2 47 -7 128 -10 180
-3 52 -7 137 -10 188 -7 124 -15 270 -20 367 -3 44 -7 125 -10 180 -3 55 -7
136 -10 180 -2 44 -7 130 -10 190 -3 61 -8 142 -10 180 -3 39 -7 124 -10 190
-3 66 -8 152 -10 190 -2 39 -7 117 -10 175 -3 58 -8 143 -11 190 -2 47 -7 130
-9 185 -3 55 -7 132 -10 170 -2 39 -7 124 -10 190 -4 66 -8 149 -10 185 -2 36
-6 112 -10 170 -3 58 -7 141 -10 185 -7 129 -16 285 -20 365 -9 185 -16 320
-20 375 -2 33 -7 121 -11 195 -3 74 -8 155 -9 180 -2 25 -6 101 -9 170 -4 69
-9 157 -11 195 -2 39 -7 120 -10 180 -3 61 -8 144 -10 185 -2 41 -7 131 -10
200 -3 69 -8 143 -10 165 -13 128 -16 356 -7 402 32 149 138 273 308 360 125
65 293 121 385 129 39 4 77 13 84 20 14 14 15 169 1 192 -9 15 -1619 18 -1660
2 -73 -27 -138 -129 -271 -425 -59 -132 -298 -662 -320 -710 -16 -33 -47 -102
-71 -152 -23 -51 -40 -93 -37 -93 3 0 1 -6 -5 -12 -5 -7 -42 -85 -82 -173 -40
-88 -83 -185 -97 -215 -14 -30 -57 -125 -95 -210 -67 -148 -88 -194 -142 -312
-13 -29 -65 -145 -116 -258 -51 -113 -103 -227 -115 -255 -13 -27 -67 -147
-121 -265 -53 -118 -107 -237 -119 -265 -13 -27 -44 -97 -70 -155 -26 -58 -58
-129 -71 -157 -13 -29 -36 -79 -50 -110 -14 -32 -41 -91 -60 -131 -19 -41 -34
-75 -34 -77 0 -2 -18 -43 -41 -92 -22 -48 -49 -106 -59 -128 -9 -22 -28 -62
-40 -90 -13 -27 -45 -99 -72 -160 -192 -425 -384 -848 -403 -890 -13 -27 -67
-147 -120 -265 -53 -118 -104 -230 -112 -248 -25 -52 -58 -68 -130 -63 -36 2
-72 67 -213 381 -72 162 -142 318 -155 345 -12 28 -80 178 -150 335 -204 455
-265 592 -290 645 -13 28 -50 111 -83 185 -33 74 -71 160 -85 190 -66 145
-207 461 -207 464 0 2 -19 44 -41 93 -44 94 -83 179 -104 228 -25 56 -67 149
-135 300 -37 83 -114 254 -170 380 -57 127 -116 259 -132 295 -25 53 -86 189
-173 385 -8 17 -32 70 -54 118 -23 49 -41 91 -41 93 0 2 -13 32 -29 66 -52
114 -212 471 -271 603 -32 72 -70 156 -84 188 -40 88 -67 148 -146 327 -97
217 -115 244 -195 281 -38 18 -84 19 -852 19 -639 0 -813 -3 -820 -12z"/>
</g>
</svg>
